<?xml version="1.0" encoding="UTF-8" standalone="no"?><!DOCTYPE svg PUBLIC "-//W3C//DTD SVG 1.1//EN" "http://www.w3.org/Graphics/SVG/1.1/DTD/svg11.dtd"><svg width="100%" height="100%" viewBox="0 0 1072 1072" version="1.1" xmlns="http://www.w3.org/2000/svg" xmlns:xlink="http://www.w3.org/1999/xlink" xml:space="preserve" xmlns:serif="http://www.serif.com/" style="fill-rule:evenodd;clip-rule:evenodd;stroke-linejoin:round;stroke-miterlimit:2;"><rect id="csv" x="0" y="0" width="1071.59" height="1071.59" style="fill:none;"/><g><g><path d="M1055.47,347.468l-0,543.93c-0,90.559 -73.522,164.081 -164.081,164.081l-711.201,0c-90.559,0 -164.081,-73.522 -164.081,-164.081l0,-711.207c0,-90.559 73.522,-164.082 164.081,-164.082l543.938,0l331.344,331.359Z" style="fill:#2d992d;"/><path d="M724.135,16.111l331.344,331.359l-278.47,0c-14.023,0 -27.472,-5.57 -37.388,-15.486c-9.915,-9.916 -15.486,-23.365 -15.486,-37.388c-0,-93.552 -0,-278.485 -0,-278.485Z" style="fill:#246024;"/></g><g><path d="M382.26,715.31c-2.348,32.461 -14.331,58.015 -35.948,76.663c-21.618,18.648 -50.107,27.972 -85.468,27.972c-38.677,-0 -69.1,-13.019 -91.27,-39.057c-22.17,-26.038 -33.255,-61.779 -33.255,-107.225l-0,-18.44c-0,-29.008 5.11,-54.562 15.332,-76.663c10.222,-22.102 24.829,-39.057 43.822,-50.868c18.993,-11.81 41.059,-17.715 66.199,-17.715c34.809,0 62.85,9.324 84.122,27.972c21.272,18.648 33.566,44.824 36.881,78.528l-62.159,-0c-1.519,-19.477 -6.941,-33.601 -16.265,-42.372c-9.324,-8.772 -23.517,-13.157 -42.579,-13.157c-20.719,-0 -36.225,7.424 -46.515,22.273c-10.291,14.85 -15.574,37.883 -15.851,69.101l0,22.792c0,32.599 4.938,56.426 14.815,71.483c9.876,15.056 25.45,22.584 46.723,22.584c19.2,0 33.531,-4.385 42.993,-13.157c9.462,-8.771 14.883,-22.342 16.265,-40.714l62.158,0Z" style="fill:#fff;fill-rule:nonzero;"/><path d="M579.511,736.651c0,-11.741 -4.144,-20.754 -12.432,-27.039c-8.287,-6.285 -23.206,-12.915 -44.754,-19.891c-21.548,-6.976 -38.608,-13.848 -51.177,-20.616c-34.257,-18.51 -51.385,-43.443 -51.385,-74.798c-0,-16.3 4.593,-30.838 13.778,-43.616c9.186,-12.777 22.378,-22.757 39.575,-29.94c17.197,-7.183 36.501,-10.774 57.911,-10.774c21.549,0 40.749,3.902 57.601,11.707c16.852,7.804 29.94,18.82 39.263,33.048c9.324,14.227 13.986,30.389 13.986,48.484l-62.159,0c0,-13.813 -4.351,-24.553 -13.053,-32.219c-8.702,-7.667 -20.927,-11.5 -36.674,-11.5c-15.194,0 -27.004,3.212 -35.43,9.635c-8.426,6.423 -12.639,14.884 -12.639,25.382c-0,9.807 4.938,18.026 14.814,24.656c9.877,6.631 24.415,12.847 43.615,18.648c35.362,10.636 61.123,23.828 77.284,39.575c16.162,15.747 24.242,35.362 24.242,58.844c0,26.107 -9.876,46.585 -29.629,61.434c-19.753,14.849 -46.343,22.274 -79.77,22.274c-23.206,-0 -44.34,-4.248 -63.402,-12.743c-19.062,-8.495 -33.601,-20.133 -43.615,-34.913c-10.015,-14.78 -15.022,-31.908 -15.022,-51.385l62.366,0c0,33.29 19.891,49.935 59.673,49.935c14.78,-0 26.314,-3.004 34.601,-9.013c8.288,-6.009 12.432,-14.4 12.432,-25.175Z" style="fill:#fff;fill-rule:nonzero;"/><path d="M795.41,741.003l68.374,-226.882l69.204,0l-105.049,301.68l-64.852,-0l-104.634,-301.68l68.996,0l67.961,226.882Z" style="fill:#fff;fill-rule:nonzero;"/></g></g></svg>