<?xml version="1.0" encoding="UTF-8" standalone="no"?><!DOCTYPE svg PUBLIC "-//W3C//DTD SVG 1.1//EN" "http://www.w3.org/Graphics/SVG/1.1/DTD/svg11.dtd"><svg width="100%" height="100%" viewBox="0 0 1072 1072" version="1.1" xmlns="http://www.w3.org/2000/svg" xmlns:xlink="http://www.w3.org/1999/xlink" xml:space="preserve" xmlns:serif="http://www.serif.com/" style="fill-rule:evenodd;clip-rule:evenodd;stroke-linejoin:round;stroke-miterlimit:2;"><rect id="csv" x="0.077" y="0.063" width="1071.59" height="1071.59" style="fill:none;"/><g><g><path d="M1055.55,347.53l0,543.93c0,90.559 -73.522,164.082 -164.08,164.082l-711.201,-0c-90.559,-0 -164.081,-73.523 -164.081,-164.082l0,-711.207c0,-90.559 73.522,-164.081 164.081,-164.081l543.938,-0l331.343,331.358Z" style="fill:#2d992d;"/><path d="M724.212,16.173l331.344,331.36l-278.47,-0c-14.023,-0 -27.472,-5.571 -37.388,-15.487c-9.916,-9.915 -15.486,-23.364 -15.486,-37.387c-0,-93.553 -0,-278.486 -0,-278.486Z" style="fill:#246024;"/></g><g transform="matrix(0.999992,-1.30015e-32,1.30014e-32,1,-0.0413112,0)"><g transform="matrix(424.341,0,0,424.341,934.563,815.863)"></g><text x="118.619px" y="815.863px" style="font-family:'Roboto-Bold', 'Roboto';font-weight:700;font-size:424.341px;fill:#fff;">CSV</text></g></g></svg>