<?xml version="1.0" encoding="UTF-8" standalone="no"?><!DOCTYPE svg PUBLIC "-//W3C//DTD SVG 1.1//EN" "http://www.w3.org/Graphics/SVG/1.1/DTD/svg11.dtd"><svg width="100%" height="100%" viewBox="0 0 1072 1072" version="1.1" xmlns="http://www.w3.org/2000/svg" xmlns:xlink="http://www.w3.org/1999/xlink" xml:space="preserve" xmlns:serif="http://www.serif.com/" style="fill-rule:evenodd;clip-rule:evenodd;stroke-linejoin:round;stroke-miterlimit:2;"><rect id="doc" x="0" y="0" width="1071.59" height="1071.59" style="fill:none;"/><g><g><path d="M1055.47,347.469l-0,543.926c-0,90.559 -73.522,164.08 -164.081,164.08l-711.201,0c-90.559,0 -164.081,-73.521 -164.081,-164.08l0,-711.201c0,-90.559 73.522,-164.081 164.081,-164.081l543.938,0l331.344,331.356Z" style="fill:#4176c5;"/><path d="M724.135,16.115l331.344,331.357l-278.47,-0c-14.023,-0 -27.472,-5.571 -37.388,-15.487c-9.915,-9.916 -15.486,-23.364 -15.486,-37.387c-0,-93.552 -0,-278.483 -0,-278.483Z" style="fill:#234c88;"/></g><g><path d="M124.975,786.686l-0,-301.677l92.824,-0c26.521,-0 50.245,5.974 71.172,17.922c20.926,11.949 37.26,28.939 49.002,50.971c11.741,22.031 17.611,47.068 17.611,75.108l0,13.882c0,28.041 -5.767,52.973 -17.301,74.798c-11.534,21.825 -27.798,38.746 -48.794,50.763c-20.996,12.018 -44.686,18.095 -71.069,18.233l-93.445,0Zm62.159,-251.329l-0,201.395l30.043,0c24.311,0 42.89,-7.942 55.736,-23.827c12.846,-15.885 19.407,-38.608 19.684,-68.168l-0,-15.954c-0,-30.665 -6.354,-53.906 -19.062,-69.722c-12.708,-15.816 -31.287,-23.724 -55.736,-23.724l-30.665,0Z" style="fill:#fff;fill-rule:nonzero;"/><path d="M648.56,642.685c-0,29.698 -5.249,55.736 -15.747,78.113c-10.498,22.377 -25.52,39.644 -45.065,51.799c-19.546,12.156 -41.958,18.233 -67.236,18.233c-25.001,0 -47.309,-6.008 -66.924,-18.026c-19.615,-12.017 -34.809,-29.18 -45.583,-51.488c-10.774,-22.308 -16.231,-47.966 -16.369,-76.973l0,-14.918c0,-29.699 5.353,-55.84 16.058,-78.424c10.705,-22.585 25.831,-39.92 45.376,-52.006c19.546,-12.087 41.888,-18.13 67.028,-18.13c25.14,-0 47.482,6.043 67.028,18.13c19.545,12.086 34.671,29.421 45.376,52.006c10.705,22.584 16.058,48.656 16.058,78.216l-0,13.468Zm-62.988,-13.675c-0,-31.632 -5.663,-55.667 -16.99,-72.104c-11.327,-16.438 -27.488,-24.656 -48.484,-24.656c-20.858,-0 -36.95,8.115 -48.277,24.345c-11.326,16.23 -17.059,40.023 -17.197,71.379l-0,14.711c-0,30.803 5.663,54.7 16.99,71.69c11.327,16.99 27.626,25.485 48.898,25.485c20.858,0 36.881,-8.184 48.07,-24.553c11.188,-16.368 16.852,-40.23 16.99,-71.586l-0,-14.711Z" style="fill:#fff;fill-rule:nonzero;"/><path d="M930.554,686.196c-2.349,32.461 -14.332,58.015 -35.949,76.663c-21.617,18.648 -50.107,27.971 -85.468,27.971c-38.677,0 -69.1,-13.018 -91.27,-39.056c-22.17,-26.038 -33.255,-61.779 -33.255,-107.224l-0,-18.441c-0,-29.007 5.111,-54.561 15.332,-76.662c10.222,-22.101 24.829,-39.057 43.822,-50.867c18.993,-11.81 41.06,-17.715 66.199,-17.715c34.809,-0 62.85,9.324 84.122,27.971c21.272,18.648 33.566,44.824 36.881,78.528l-62.159,-0c-1.519,-19.477 -6.941,-33.601 -16.265,-42.372c-9.324,-8.771 -23.517,-13.157 -42.579,-13.157c-20.719,0 -36.224,7.425 -46.515,22.274c-10.291,14.849 -15.574,37.882 -15.851,69.1l0,22.791c0,32.599 4.939,56.427 14.815,71.483c9.876,15.056 25.45,22.584 46.723,22.584c19.2,0 33.531,-4.385 42.993,-13.157c9.462,-8.771 14.883,-22.342 16.265,-40.714l62.159,0Z" style="fill:#fff;fill-rule:nonzero;"/></g></g></svg>