<?xml version="1.0" encoding="UTF-8" standalone="no"?><!DOCTYPE svg PUBLIC "-//W3C//DTD SVG 1.1//EN" "http://www.w3.org/Graphics/SVG/1.1/DTD/svg11.dtd"><svg width="100%" height="100%" viewBox="0 0 1072 1073" version="1.1" xmlns="http://www.w3.org/2000/svg" xmlns:xlink="http://www.w3.org/1999/xlink" xml:space="preserve" xmlns:serif="http://www.serif.com/" style="fill-rule:evenodd;clip-rule:evenodd;stroke-linejoin:round;stroke-miterlimit:2;"><rect id="excel" x="0.137" y="0.563" width="1071.59" height="1071.59" style="fill:none;"/><g><g><path d="M1055.61,348.032l0,543.927c0,90.558 -73.522,164.08 -164.08,164.08l-711.201,-0c-90.559,-0 -164.081,-73.522 -164.081,-164.08l0,-711.202c0,-90.558 73.522,-164.08 164.081,-164.08l543.938,-0l331.343,331.355Z" style="fill:#2d992d;"/><path d="M724.272,16.678l331.344,331.357l-278.47,-0c-14.023,0 -27.472,-5.571 -37.388,-15.486c-9.916,-9.916 -15.486,-23.365 -15.486,-37.388c-0,-93.552 -0,-278.483 -0,-278.483Z" style="fill:#246024;"/></g><g transform="matrix(424.338,0,0,424.338,887.478,816.362)"></g><text x="127.276px" y="816.362px" style="font-family:'Roboto-Bold', 'Roboto';font-weight:700;font-size:424.338px;fill:#fff;">XLS</text></g></svg>