<?xml version="1.0" encoding="UTF-8" standalone="no"?><!DOCTYPE svg PUBLIC "-//W3C//DTD SVG 1.1//EN" "http://www.w3.org/Graphics/SVG/1.1/DTD/svg11.dtd"><svg width="100%" height="100%" viewBox="0 0 1072 1072" version="1.1" xmlns="http://www.w3.org/2000/svg" xmlns:xlink="http://www.w3.org/1999/xlink" xml:space="preserve" xmlns:serif="http://www.serif.com/" style="fill-rule:evenodd;clip-rule:evenodd;stroke-linejoin:round;stroke-miterlimit:2;"><rect id="excel" x="0" y="0" width="1071.59" height="1071.59" style="fill:none;"/><g><g><path d="M1055.47,347.469l-0,543.926c-0,90.559 -73.522,164.08 -164.081,164.08l-711.201,0c-90.559,0 -164.081,-73.521 -164.081,-164.08l0,-711.201c0,-90.559 73.522,-164.081 164.081,-164.081l543.938,0l331.344,331.356Z" style="fill:#2d992d;"/><path d="M724.135,16.115l331.344,331.357l-278.47,-0c-14.023,-0 -27.472,-5.571 -37.388,-15.487c-9.915,-9.916 -15.486,-23.364 -15.486,-37.387c-0,-93.552 -0,-278.483 -0,-278.483Z" style="fill:#246024;"/></g><g><path d="M288.023,618.134l56.565,-104.013l71.483,0l-87.852,149.596l90.131,152.082l-72.312,-0l-58.015,-105.67l-58.015,105.67l-72.311,-0l90.13,-152.082l-87.851,-149.596l71.483,0l56.564,104.013Z" style="fill:#fff;fill-rule:nonzero;"/><path d="M511.795,765.865l131.984,-0l0,49.934l-194.143,-0l0,-301.678l62.159,0l0,251.744Z" style="fill:#fff;fill-rule:nonzero;"/><path d="M835.85,736.65c0,-11.741 -4.144,-20.754 -12.432,-27.039c-8.288,-6.285 -23.206,-12.915 -44.754,-19.891c-21.549,-6.976 -38.608,-13.848 -51.178,-20.616c-34.256,-18.51 -51.384,-43.442 -51.384,-74.798c-0,-16.299 4.593,-30.838 13.778,-43.615c9.186,-12.777 22.377,-22.757 39.575,-29.94c17.197,-7.182 36.501,-10.774 57.911,-10.774c21.549,0 40.749,3.902 57.601,11.707c16.852,7.804 29.939,18.82 39.263,33.048c9.324,14.227 13.986,30.388 13.986,48.484l-62.159,-0c0,-13.814 -4.351,-24.553 -13.053,-32.219c-8.702,-7.667 -20.927,-11.5 -36.674,-11.5c-15.194,0 -27.004,3.212 -35.43,9.635c-8.426,6.423 -12.639,14.883 -12.639,25.381c-0,9.808 4.938,18.026 14.814,24.657c9.876,6.63 24.415,12.846 43.615,18.647c35.361,10.636 61.123,23.828 77.284,39.575c16.161,15.747 24.242,35.361 24.242,58.843c0,26.107 -9.876,46.585 -29.629,61.434c-19.753,14.849 -46.343,22.274 -79.771,22.274c-23.205,-0 -44.339,-4.248 -63.402,-12.743c-19.062,-8.495 -33.6,-20.132 -43.614,-34.912c-10.015,-14.78 -15.022,-31.909 -15.022,-51.385l62.366,-0c-0,33.289 19.891,49.934 59.672,49.934c14.78,0 26.314,-3.004 34.602,-9.013c8.288,-6.009 12.432,-14.4 12.432,-25.174Z" style="fill:#fff;fill-rule:nonzero;"/></g></g></svg>