<?xml version="1.0" encoding="UTF-8" standalone="no"?><!DOCTYPE svg PUBLIC "-//W3C//DTD SVG 1.1//EN" "http://www.w3.org/Graphics/SVG/1.1/DTD/svg11.dtd"><svg width="100%" height="100%" viewBox="0 0 1072 1072" version="1.1" xmlns="http://www.w3.org/2000/svg" xmlns:xlink="http://www.w3.org/1999/xlink" xml:space="preserve" xmlns:serif="http://www.serif.com/" style="fill-rule:evenodd;clip-rule:evenodd;stroke-linejoin:round;stroke-miterlimit:2;"><rect id="html" x="0" y="0" width="1071.59" height="1071.59" style="fill:none;"/><g><g><path d="M1055.47,347.469l-0,543.926c-0,90.559 -73.522,164.08 -164.081,164.08l-711.201,0c-90.559,0 -164.081,-73.521 -164.081,-164.08l0,-711.201c0,-90.559 73.522,-164.081 164.081,-164.081l543.938,0l331.344,331.356Z" style="fill:#ee703a;"/><path d="M724.135,16.115l331.344,331.357l-278.47,-0c-14.023,-0 -27.472,-5.571 -37.388,-15.487c-9.915,-9.916 -15.486,-23.364 -15.486,-37.387c-0,-93.552 -0,-278.483 -0,-278.483Z" style="fill:#b43c1a;"/></g></g><g><path d="M274.705,772.518l-52.252,0l0,-108.684l-101.891,0l-0,108.684l-52.252,0l-0,-253.596l52.252,0l-0,102.762l101.891,0l0,-102.762l52.252,0l-0,253.596Z" style="fill:#fff;fill-rule:nonzero;"/><path d="M506.181,561.246l-77.681,0l-0,211.272l-52.252,0l-0,-211.272l-76.636,0l-0,-42.324l206.569,0l0,42.324Z" style="fill:#fff;fill-rule:nonzero;"/><path d="M604.241,518.922l65.14,183.927l64.793,-183.927l68.624,0l-0,253.596l-52.426,0l-0,-69.321l5.225,-119.657l-68.45,188.978l-35.88,0l-68.276,-188.803l5.226,119.482l-0,69.321l-52.252,0l-0,-253.596l68.276,0Z" style="fill:#fff;fill-rule:nonzero;"/><path d="M900.683,730.542l110.948,0l0,41.976l-163.2,0l0,-253.596l52.252,0l0,211.62Z" style="fill:#fff;fill-rule:nonzero;"/></g></svg>