<?xml version="1.0" encoding="UTF-8" standalone="no"?><!DOCTYPE svg PUBLIC "-//W3C//DTD SVG 1.1//EN" "http://www.w3.org/Graphics/SVG/1.1/DTD/svg11.dtd"><svg width="100%" height="100%" viewBox="0 0 1073 1072" version="1.1" xmlns="http://www.w3.org/2000/svg" xmlns:xlink="http://www.w3.org/1999/xlink" xml:space="preserve" xmlns:serif="http://www.serif.com/" style="fill-rule:evenodd;clip-rule:evenodd;stroke-linejoin:round;stroke-miterlimit:2;"><rect id="html" x="0.468" y="0.127" width="1071.59" height="1071.59" style="fill:none;"/><g><g><path d="M1055.94,347.596l-0,543.926c-0,90.559 -73.522,164.081 -164.081,164.081l-711.201,-0c-90.558,-0 -164.08,-73.522 -164.08,-164.081l-0,-711.201c-0,-90.559 73.522,-164.081 164.08,-164.081l543.939,0l331.343,331.356Z" style="fill:#ee703a;"/><path d="M724.603,16.242l331.345,331.357l-278.471,-0c-14.023,-0 -27.472,-5.571 -37.387,-15.487c-9.916,-9.915 -15.487,-23.364 -15.487,-37.387c0,-93.552 0,-278.483 0,-278.483Z" style="fill:#b43c1a;"/></g></g><g transform="matrix(356.707,0,0,356.707,1035.41,772.645)"></g><text x="62.136px" y="772.645px" style="font-family:'Roboto-Bold', 'Roboto';font-weight:700;font-size:356.707px;fill:#fff;">H<tspan x="309.113px " y="772.645px ">T</tspan>ML</text></svg>