<?xml version="1.0" encoding="UTF-8" standalone="no"?><!DOCTYPE svg PUBLIC "-//W3C//DTD SVG 1.1//EN" "http://www.w3.org/Graphics/SVG/1.1/DTD/svg11.dtd"><svg width="100%" height="100%" viewBox="0 0 1072 1072" version="1.1" xmlns="http://www.w3.org/2000/svg" xmlns:xlink="http://www.w3.org/1999/xlink" xml:space="preserve" xmlns:serif="http://www.serif.com/" style="fill-rule:evenodd;clip-rule:evenodd;stroke-linejoin:round;stroke-miterlimit:2;"><rect id="image" x="0" y="0" width="1071.59" height="1071.59" style="fill:none;"/><g><g><path d="M1055.47,347.469l-0,543.926c-0,90.559 -73.522,164.08 -164.081,164.08l-711.201,0c-90.559,0 -164.081,-73.521 -164.081,-164.08l0,-711.201c0,-90.559 73.522,-164.081 164.081,-164.081l543.938,0l331.344,331.356Z" style="fill:#4176c5;"/><path d="M724.135,16.115l331.344,331.357l-278.47,-0c-14.023,-0 -27.472,-5.571 -37.388,-15.487c-9.915,-9.916 -15.486,-23.364 -15.486,-37.387c-0,-93.552 -0,-278.483 -0,-278.483Z" style="fill:#234c88;"/></g></g><circle cx="409.06" cy="412.199" r="43.357" style="fill:#fff;"/><path d="M901.763,827.083c2.47,4.473 2.393,9.919 -0.204,14.32c-2.597,4.4 -7.326,7.101 -12.436,7.101l-685.09,0c-5.11,0 -9.839,-2.701 -12.436,-7.101c-2.597,-4.401 -2.674,-9.847 -0.204,-14.32c32.156,-58.223 120.959,-219.015 154.044,-278.921c2.541,-4.602 7.383,-7.459 12.64,-7.459c5.257,-0 10.099,2.857 12.64,7.458c21.501,38.931 64.948,117.599 86.449,156.53c2.542,4.602 7.383,7.459 12.64,7.459c5.258,0 10.099,-2.857 12.641,-7.459c34.311,-62.125 128.909,-233.411 163.22,-295.537c2.542,-4.602 7.383,-7.459 12.64,-7.459c5.257,0 10.099,2.857 12.641,7.459c43.745,79.208 188.34,341.022 230.815,417.929Z" style="fill:#fff;"/></svg>