<?xml version="1.0" encoding="UTF-8" standalone="no"?><!DOCTYPE svg PUBLIC "-//W3C//DTD SVG 1.1//EN" "http://www.w3.org/Graphics/SVG/1.1/DTD/svg11.dtd"><svg width="100%" height="100%" viewBox="0 0 1072 1072" version="1.1" xmlns="http://www.w3.org/2000/svg" xmlns:xlink="http://www.w3.org/1999/xlink" xml:space="preserve" xmlns:serif="http://www.serif.com/" style="fill-rule:evenodd;clip-rule:evenodd;stroke-linejoin:round;stroke-miterlimit:2;"><rect id="pdf" x="0" y="0" width="1071.59" height="1071.59" style="fill:none;"/><g><g><path d="M1055.47,347.469l-0,543.926c-0,90.559 -73.522,164.08 -164.081,164.08l-711.201,0c-90.559,0 -164.081,-73.521 -164.081,-164.08l0,-711.201c0,-90.559 73.522,-164.081 164.081,-164.081l543.938,0l331.344,331.356Z" style="fill:#c13636;"/><path d="M724.135,16.115l331.344,331.357l-278.47,-0c-14.023,-0 -27.472,-5.571 -37.388,-15.487c-9.915,-9.916 -15.486,-23.364 -15.486,-37.387c-0,-93.552 -0,-278.483 -0,-278.483Z" style="fill:#8b1919;"/></g><g><path d="M220.049,709.42l0,106.291l-62.158,0l-0,-301.677l117.687,-0c22.653,-0 42.579,4.143 59.776,12.431c17.197,8.288 30.423,20.064 39.678,35.327c9.255,15.264 13.882,32.634 13.882,52.11c0,29.56 -10.118,52.87 -30.354,69.929c-20.236,17.059 -48.242,25.589 -84.018,25.589l-54.493,-0Zm0,-50.349l55.529,-0c16.438,-0 28.973,-3.868 37.606,-11.603c8.633,-7.735 12.95,-18.786 12.95,-33.151c-0,-14.78 -4.351,-26.729 -13.054,-35.845c-8.702,-9.117 -20.719,-13.814 -36.052,-14.09l-56.979,0l0,94.689Z" style="fill:#fff;fill-rule:nonzero;"/><path d="M431.597,815.711l-0,-301.677l92.824,-0c26.521,-0 50.245,5.974 71.171,17.922c20.927,11.948 37.261,28.938 49.002,50.97c11.741,22.032 17.612,47.068 17.612,75.109l0,13.882c0,28.041 -5.767,52.973 -17.301,74.798c-11.534,21.825 -27.799,38.746 -48.795,50.763c-20.995,12.017 -44.685,18.095 -71.068,18.233l-93.445,0Zm62.159,-251.329l-0,201.395l30.043,-0c24.311,-0 42.89,-7.943 55.736,-23.828c12.846,-15.885 19.407,-38.607 19.683,-68.167l0,-15.954c0,-30.665 -6.354,-53.906 -19.062,-69.722c-12.708,-15.816 -31.286,-23.724 -55.735,-23.724l-30.665,0Z" style="fill:#fff;fill-rule:nonzero;"/><path d="M888.879,692.429l-119.345,0l-0,123.282l-62.159,0l-0,-301.677l196.422,-0l-0,50.348l-134.263,0l-0,77.906l119.345,-0l-0,50.141Z" style="fill:#fff;fill-rule:nonzero;"/></g></g></svg>