<?xml version="1.0" encoding="UTF-8" standalone="no"?><!DOCTYPE svg PUBLIC "-//W3C//DTD SVG 1.1//EN" "http://www.w3.org/Graphics/SVG/1.1/DTD/svg11.dtd"><svg width="100%" height="100%" viewBox="0 0 1073 1072" version="1.1" xmlns="http://www.w3.org/2000/svg" xmlns:xlink="http://www.w3.org/1999/xlink" xml:space="preserve" xmlns:serif="http://www.serif.com/" style="fill-rule:evenodd;clip-rule:evenodd;stroke-linejoin:round;stroke-miterlimit:2;"><rect id="ppt" x="0.722" y="0" width="1071.59" height="1071.59" style="fill:none;"/><g><g><path d="M1056.19,347.469l-0,543.926c-0,90.559 -73.522,164.08 -164.081,164.08l-711.201,0c-90.559,0 -164.081,-73.521 -164.081,-164.08l0,-711.201c0,-90.559 73.522,-164.081 164.081,-164.081l543.938,0l331.344,331.356Z" style="fill:#c13636;"/><path d="M724.857,16.115l331.344,331.357l-278.47,-0c-14.023,-0 -27.472,-5.571 -37.388,-15.487c-9.915,-9.916 -15.486,-23.364 -15.486,-37.387c-0,-93.552 -0,-278.483 -0,-278.483Z" style="fill:#8b1919;"/></g><g transform="matrix(424.338,0,0,424.338,938.585,823.423)"></g><text x="128.655px" y="823.423px" style="font-family:'Roboto-Bold', 'Roboto';font-weight:700;font-size:424.338px;fill:#fff;">PPT</text></g></svg>