<?xml version="1.0" encoding="UTF-8" standalone="no"?><!DOCTYPE svg PUBLIC "-//W3C//DTD SVG 1.1//EN" "http://www.w3.org/Graphics/SVG/1.1/DTD/svg11.dtd"><svg width="100%" height="100%" viewBox="0 0 1072 1072" version="1.1" xmlns="http://www.w3.org/2000/svg" xmlns:xlink="http://www.w3.org/1999/xlink" xml:space="preserve" xmlns:serif="http://www.serif.com/" style="fill-rule:evenodd;clip-rule:evenodd;stroke-linejoin:round;stroke-miterlimit:2;"><rect id="ppt" x="0" y="0" width="1071.59" height="1071.59" style="fill:none;"/><g><g><path d="M1055.47,347.469l-0,543.926c-0,90.559 -73.522,164.08 -164.081,164.08l-711.201,0c-90.559,0 -164.081,-73.521 -164.081,-164.08l0,-711.201c0,-90.559 73.522,-164.081 164.081,-164.081l543.938,0l331.344,331.356Z" style="fill:#c13636;"/><path d="M724.135,16.115l331.344,331.357l-278.47,-0c-14.023,-0 -27.472,-5.571 -37.388,-15.487c-9.915,-9.916 -15.486,-23.364 -15.486,-37.387c-0,-93.552 -0,-278.483 -0,-278.483Z" style="fill:#8b1919;"/></g><g><path d="M217.028,717.131l-0,106.292l-62.159,-0l-0,-301.678l117.687,0c22.654,0 42.579,4.144 59.776,12.432c17.198,8.288 30.424,20.064 39.678,35.327c9.255,15.264 13.883,32.633 13.883,52.11c-0,29.56 -10.119,52.869 -30.355,69.929c-20.236,17.059 -48.242,25.588 -84.018,25.588l-54.492,0Zm-0,-50.348l55.528,-0c16.438,-0 28.973,-3.868 37.606,-11.603c8.633,-7.736 12.95,-18.786 12.95,-33.152c0,-14.78 -4.351,-26.728 -13.053,-35.845c-8.703,-9.116 -20.72,-13.813 -36.052,-14.089l-56.979,0l-0,94.689Z" style="fill:#fff;fill-rule:nonzero;"/><path d="M490.734,717.131l-0,106.292l-62.159,-0l-0,-301.678l117.687,0c22.654,0 42.579,4.144 59.776,12.432c17.198,8.288 30.424,20.064 39.678,35.327c9.255,15.264 13.883,32.633 13.883,52.11c-0,29.56 -10.118,52.869 -30.355,69.929c-20.236,17.059 -48.242,25.588 -84.018,25.588l-54.492,0Zm-0,-50.348l55.528,-0c16.438,-0 28.973,-3.868 37.606,-11.603c8.634,-7.736 12.95,-18.786 12.95,-33.152c0,-14.78 -4.351,-26.728 -13.053,-35.845c-8.702,-9.116 -20.72,-13.813 -36.052,-14.089l-56.979,0l-0,94.689Z" style="fill:#fff;fill-rule:nonzero;"/><path d="M929.368,572.094l-92.409,0l-0,251.329l-62.159,-0l-0,-251.329l-91.167,0l0,-50.349l245.735,0l0,50.349Z" style="fill:#fff;fill-rule:nonzero;"/></g></g></svg>