<?xml version="1.0" encoding="UTF-8" standalone="no"?><!DOCTYPE svg PUBLIC "-//W3C//DTD SVG 1.1//EN" "http://www.w3.org/Graphics/SVG/1.1/DTD/svg11.dtd"><svg width="100%" height="100%" viewBox="0 0 1073 1073" version="1.1" xmlns="http://www.w3.org/2000/svg" xmlns:xlink="http://www.w3.org/1999/xlink" xml:space="preserve" xmlns:serif="http://www.serif.com/" style="fill-rule:evenodd;clip-rule:evenodd;stroke-linejoin:round;stroke-miterlimit:2;"><rect id="txt" x="0.619" y="0.896" width="1071.59" height="1071.59" style="fill:none;"/><g><g><path d="M1056.09,348.365l-0,543.926c-0,90.558 -73.522,164.08 -164.081,164.08l-711.201,0c-90.559,0 -164.081,-73.522 -164.081,-164.08l0,-711.202c0,-90.558 73.522,-164.08 164.081,-164.08l543.938,-0l331.344,331.356Z" style="fill:#4176c5;"/><path d="M724.754,17.01l331.344,331.357l-278.47,0c-14.023,0 -27.472,-5.57 -37.388,-15.486c-9.915,-9.916 -15.486,-23.365 -15.486,-37.388c-0,-93.552 -0,-278.483 -0,-278.483Z" style="fill:#234c88;"/></g><g transform="matrix(424.338,0,0,424.338,938.078,792.005)"></g><text x="143.481px" y="792.005px" style="font-family:'Roboto-Bold', 'Roboto';font-weight:700;font-size:424.338px;fill:#fff;">TXT</text></g></svg>