<?xml version="1.0" encoding="UTF-8" standalone="no"?><!DOCTYPE svg PUBLIC "-//W3C//DTD SVG 1.1//EN" "http://www.w3.org/Graphics/SVG/1.1/DTD/svg11.dtd"><svg width="100%" height="100%" viewBox="0 0 1072 1072" version="1.1" xmlns="http://www.w3.org/2000/svg" xmlns:xlink="http://www.w3.org/1999/xlink" xml:space="preserve" xmlns:serif="http://www.serif.com/" style="fill-rule:evenodd;clip-rule:evenodd;stroke-linejoin:round;stroke-miterlimit:2;"><rect id="txt" x="0" y="0" width="1071.59" height="1071.59" style="fill:none;"/><g><g><path d="M1055.47,347.469l-0,543.926c-0,90.559 -73.522,164.08 -164.081,164.08l-711.201,0c-90.559,0 -164.081,-73.521 -164.081,-164.08l0,-711.201c0,-90.559 73.522,-164.081 164.081,-164.081l543.938,0l331.344,331.356Z" style="fill:#4176c5;"/><path d="M724.135,16.115l331.344,331.357l-278.47,-0c-14.023,-0 -27.472,-5.571 -37.388,-15.487c-9.915,-9.916 -15.486,-23.364 -15.486,-37.387c-0,-93.552 -0,-278.483 -0,-278.483Z" style="fill:#234c88;"/></g><g><path d="M396.884,539.78l-92.409,0l-0,251.329l-62.159,0l-0,-251.329l-91.167,0l0,-50.349l245.735,0l0,50.349Z" style="fill:#fff;fill-rule:nonzero;"/><path d="M540.264,593.444l56.564,-104.013l71.483,0l-87.851,149.596l90.13,152.082l-72.311,0l-58.015,-105.67l-58.015,105.67l-72.312,0l90.131,-152.082l-87.851,-149.596l71.482,0l56.565,104.013Z" style="fill:#fff;fill-rule:nonzero;"/><path d="M928.964,539.78l-92.41,0l0,251.329l-62.159,0l0,-251.329l-91.166,0l0,-50.349l245.735,0l-0,50.349Z" style="fill:#fff;fill-rule:nonzero;"/></g></g></svg>